# xmcd
#
# Track frame offsets:
#	150
#	15980
#	38100
#
# Disc length: 735 seconds
#
# Revision: 0
# Processed by: cddbd v1.5.2PL0 Copyright (c) Steve Scherf et al.
# Submitted via: audiograbber 1.83.01
#
DISCID=1502dd03
DTITLE=Lyle Lovett - Sampler
DYEAR=1996
DGENRE=Country
TTITLE0=Long Tall Texan
TTITLE1=That's Right
TTITLE2=Don't Touch My Hat
EXTD=
EXTT0=
EXTT1=
EXTT2=
PLAYORDER=
